# Blender v2.79 (sub 0) OBJ File: 'Portal.blend'
# www.blender.org
mtllib portal.mtl
o portal
v 0.336000 1.653173 0.003015
v 0.336000 0.326472 0.003015
v 0.336000 1.653173 0.114726
v 0.336000 0.326472 0.114726
v 1.662701 1.653173 0.003015
v 1.662701 0.326472 0.003015
v 1.662701 1.653173 0.114726
v 1.662701 0.326472 0.114726
v 1.331025 1.984848 0.114726
v 0.667675 1.984848 0.114726
v 0.667675 -0.005203 0.114726
v 1.331025 -0.005203 0.114726
v 0.667675 1.984848 0.003015
v 1.331025 1.984848 0.003015
v 1.331025 -0.005203 0.003015
v 0.667675 -0.005203 0.003015
v 0.004325 1.321498 0.003015
v 0.004325 0.658147 0.003015
v 0.004325 0.658147 0.114726
v 0.004325 1.321498 0.114726
v 1.994376 0.658147 0.114726
v 1.994376 1.321498 0.114726
v 1.994376 0.658147 0.003015
v 1.994376 1.321498 0.003015
v 0.434637 0.425109 0.011320
v 0.152281 0.707466 0.011320
v 0.434637 1.554536 0.011321
v 0.434637 1.554536 0.106421
v 1.281707 0.142753 0.106421
v 0.716994 1.836892 0.106421
v 0.152281 1.272179 0.106421
v 0.434637 0.425109 0.106421
v 1.564063 0.425109 0.106421
v 1.846420 1.272179 0.106421
v 1.564063 1.554536 0.106421
v 1.564063 1.554536 0.011321
v 1.564063 0.425109 0.011320
v 1.846420 1.272179 0.011321
v 1.281707 1.836892 0.011321
v 0.716994 0.142753 0.011320
v 1.281707 1.836892 0.106421
v 0.716994 0.142753 0.106421
v 0.716994 1.836892 0.011321
v 1.281707 0.142753 0.011320
v 0.152281 1.272179 0.011321
v 0.152281 0.707466 0.106421
v 1.846420 0.707466 0.106421
v 1.846420 0.707466 0.011320
v 0.434637 0.425109 0.058871
v 0.716994 0.142753 0.058871
v 1.281707 0.142753 0.058871
v 1.564063 0.425109 0.058871
v 1.846420 0.707466 0.058871
v 1.846420 1.272179 0.058871
v 1.564063 1.554536 0.058871
v 0.152281 0.707466 0.058871
v 0.152281 1.272179 0.058871
v 0.434637 1.554536 0.058871
v 1.281707 1.836892 0.058871
v 0.716994 1.836892 0.058871
v 0.341714 0.333837 0.070206
v 1.668415 0.333837 0.070206
v 0.341714 1.660538 0.070206
v 1.668415 1.660538 0.070206
v 0.082659 0.997188 0.070206
v 1.927469 0.997188 0.070206
v 1.005064 0.041569 0.070206
v 1.005064 1.952807 0.070206
v 1.005064 0.997188 0.070206
v 1.668415 0.333837 0.042565
v 0.341714 0.333837 0.042565
v 1.668415 1.660538 0.042565
v 0.341714 1.660538 0.042565
v 1.927469 0.997188 0.042565
v 0.082659 0.997188 0.042565
v 1.005064 0.041569 0.042565
v 1.005064 1.952807 0.042565
v 1.005064 0.997188 0.042565
vt 0.204890 0.204890
vt 0.795110 0.204890
vt 0.795110 0.795110
vt 0.204890 0.795110
vt 0.204890 0.204890
vt 0.795110 0.204890
vt 0.795110 0.795110
vt 0.204890 0.795110
vt 0.795110 0.204890
vt 0.795110 0.795110
vt 0.204890 0.795110
vt 0.795110 0.500000
vt 0.795110 0.204890
vt 0.795110 0.204890
vt 0.795110 0.204890
vt 0.204890 0.204890
vt 0.795110 0.204890
vt 0.795110 0.795110
vt 0.204890 0.795110
vt 0.204890 0.204890
vt 0.795110 0.204890
vt 0.795110 0.795110
vt 0.204890 0.795110
vt 0.204890 0.204890
vt 0.795110 0.204890
vt 0.795110 0.795110
vt 0.204890 0.795110
vt 0.204890 0.204890
vt 0.795110 0.204890
vt 0.795110 0.795110
vt 0.204890 0.795110
vt 0.204890 0.204890
vt 0.795110 0.204890
vt 0.795110 0.795110
vt 0.204890 0.795110
vt 0.204890 0.204890
vt 0.795110 0.204890
vt 0.795110 0.795110
vt 0.204890 0.795110
vt 0.795110 0.500000
vt 0.795110 0.500000
vt 0.795110 0.795110
vt 0.795110 0.795110
vt 0.795110 0.500000
vt 0.795110 0.795110
vt 0.204890 0.204890
vt 0.795110 0.204890
vt 0.795110 0.795110
vt 0.204890 0.204890
vt 0.795110 0.204890
vt 0.795110 0.795110
vt 0.204890 0.795110
vt 0.204890 0.204890
vt 0.795110 0.795110
vt 0.204890 0.795110
vt 0.204890 0.204890
vt 0.795110 0.204890
vt 0.795110 0.795110
vt 0.795110 0.204890
vt 0.795110 0.795110
vt 0.204890 0.795110
vt 0.795110 0.500000
vt 0.795110 0.500000
vt 0.795110 0.204890
vt 0.795110 0.204890
vt 0.795110 0.500000
vt 0.795110 0.500000
vt 0.795110 0.795110
vt 0.795110 0.795110
vt 0.204890 0.204890
vt 0.795110 0.204890
vt 0.795110 0.795110
vt 0.204890 0.204890
vt 0.795110 0.204890
vt 0.795110 0.795110
vt 0.204890 0.795110
vt 0.795110 0.500000
vt 0.795110 0.795110
vt 0.204890 0.204890
vt 0.795110 0.204890
vt 0.795110 0.795110
vt 0.204890 0.795110
vt 0.204890 0.204890
vt 0.795110 0.204890
vt 0.795110 0.795110
vt 0.204890 0.204890
vt 0.795110 0.204890
vt 0.795110 0.795110
vt 0.204890 0.204890
vt 0.795110 0.204890
vt 0.795110 0.795110
vt 0.204890 0.204890
vt 0.795110 0.204890
vt 0.795110 0.795110
vt 0.795110 0.204890
vt 0.795110 0.795110
vt 0.204890 0.795110
vt 0.204890 0.204890
vt 0.795110 0.204890
vt 0.795110 0.795110
vt 0.795110 0.204890
vt 0.795110 0.795110
vt 0.204890 0.795110
vt 0.204890 0.204890
vt 0.795110 0.204890
vt 0.795110 0.795110
vt 0.204890 0.204890
vt 0.795110 0.795110
vt 0.795110 0.204890
vt 0.204890 0.795110
vt 0.795110 0.204890
vt 0.204890 0.795110
vt 0.204890 0.204890
vt 0.795110 0.795110
vt 0.795110 0.204890
vt 0.204890 0.795110
vt 0.795110 0.204890
vt 0.795110 0.795110
vt 0.204890 0.795110
vt 0.795110 0.204890
vt 0.204890 0.795110
vt 0.795110 0.204890
vt 0.204890 0.795110
vt 0.795110 0.204890
vt 0.795110 0.795110
vt 0.204890 0.795110
vt 0.795110 0.204890
vt 0.204890 0.795110
vt 0.204890 0.204890
vt 0.795110 0.795110
vt 0.795110 0.500000
vt 0.795110 0.204890
vt 0.795110 0.500000
vt 0.795110 0.795110
vt 0.795110 0.500000
vt 0.500000 0.482625
vt 0.500746 0.016609
vt 0.835674 0.148025
vt 0.982796 0.483398
vt 0.017204 0.481852
vt 0.165400 0.146951
vt 0.164327 0.817225
vt 0.499254 0.948641
vt 0.834600 0.818298
vt 0.500000 0.482625
vt 0.500746 0.016609
vt 0.835674 0.148025
vt 0.982796 0.483398
vt 0.017204 0.481852
vt 0.165400 0.146951
vt 0.164327 0.817225
vt 0.499254 0.948641
vt 0.834600 0.818298
vn -0.7071 -0.7071 0.0000
vn -0.0420 0.0420 0.9982
vn 0.7071 -0.7071 0.0000
vn 0.7071 0.7071 0.0000
vn 0.0000 -1.0000 0.0000
vn -0.7071 0.7071 0.0000
vn 0.0000 1.0000 0.0000
vn 0.0000 -0.0560 -0.9984
vn -0.0420 -0.0420 -0.9982
vn 0.0560 -0.0000 0.9984
vn 0.0420 -0.0420 -0.9982
vn 0.0420 0.0420 -0.9982
vn -1.0000 0.0000 0.0000
vn 1.0000 0.0000 0.0000
vn 0.0420 -0.0420 0.9982
vn -0.0420 0.0420 -0.9982
vn -0.0560 -0.0000 0.9984
vn 0.0000 0.0560 -0.9984
vn -0.0420 -0.0420 0.9982
vn -0.0560 0.0000 -0.9984
vn 0.0000 -0.0560 0.9984
vn 0.0420 0.0420 0.9982
vn 0.0560 0.0000 -0.9984
vn 0.0000 0.0560 0.9984
vn 0.0000 0.0000 1.0000
vn -0.0000 0.0000 -1.0000
usemtl Metal
s off
f 18/1/1 2/2/1 4/3/1 19/4/1
f 21/5/2 47/6/2 33/7/2 8/8/2
f 21/5/3 8/9/3 6/10/3 23/11/3
f 56/12/4 46/13/4 32/14/4 49/15/4
f 9/16/4 7/17/4 5/18/4 14/19/4
f 11/20/1 4/21/1 2/22/1 16/23/1
f 8/24/3 12/25/3 15/26/3 6/27/3
f 12/28/5 11/29/5 16/30/5 15/31/5
f 3/32/6 10/33/6 13/34/6 1/35/6
f 10/36/7 9/37/7 14/38/7 13/39/7
f 50/40/4 49/41/4 32/42/4 42/43/4
f 51/44/7 50/40/7 42/43/7 29/45/7
f 14/46/8 39/47/8 43/48/8 13/39/8
f 24/49/9 38/50/9 36/51/9 5/52/9
f 19/53/10 46/13/10 31/54/10 20/55/10
f 13/56/11 43/57/11 27/58/11 1/35/11
f 18/1/12 26/59/12 25/60/12 2/61/12
f 52/62/6 51/44/6 29/45/6 33/7/6
f 53/63/6 48/64/6 37/65/6 52/62/6
f 54/66/13 38/50/13 48/64/13 53/63/13
f 55/67/1 54/66/1 34/68/1 35/69/1
f 7/70/4 22/71/4 24/72/4 5/52/4
f 22/73/14 21/74/14 23/75/14 24/76/14
f 59/77/1 55/67/1 35/69/1 41/78/1
f 1/79/6 17/80/6 20/81/6 3/82/6
f 17/83/13 18/84/13 19/85/13 20/55/13
f 5/86/9 36/87/9 39/88/9 14/19/9
f 20/89/15 31/90/15 28/91/15 3/82/15
f 15/92/16 44/93/16 37/94/16 6/27/16
f 22/73/17 34/95/17 47/96/17 21/97/17
f 2/98/12 25/99/12 40/100/12 16/23/12
f 3/32/15 28/101/15 30/102/15 10/103/15
f 16/104/18 40/105/18 44/106/18 15/31/18
f 6/107/16 37/65/16 48/108/16 23/11/16
f 9/16/19 41/109/19 35/69/19 7/110/19
f 8/24/2 33/111/2 29/45/2 12/112/2
f 23/113/20 48/64/20 38/114/20 24/76/20
f 10/36/21 30/115/21 41/78/21 9/116/21
f 1/79/11 27/117/11 45/118/11 17/119/11
f 7/70/19 35/120/19 34/68/19 22/121/19
f 11/20/22 42/122/22 32/42/22 4/123/22
f 17/83/23 45/124/23 26/125/23 18/126/23
f 12/28/24 29/127/24 42/43/24 11/128/24
f 4/129/22 32/14/22 46/130/22 19/4/22
f 57/131/14 31/90/14 46/13/14 56/12/14
f 57/131/3 45/118/3 27/117/3 58/132/3
f 58/133/3 60/134/3 30/102/3 28/101/3
f 60/135/5 59/77/5 41/78/5 30/115/5
f 43/48/5 39/47/5 59/77/5 60/135/5
f 27/58/3 43/48/3 60/134/3 58/133/3
f 31/90/3 57/131/3 58/132/3 28/101/3
f 45/118/14 57/131/14 56/12/14 26/125/14
f 39/47/1 36/87/1 55/67/1 59/77/1
f 36/87/1 38/50/1 54/66/1 55/67/1
f 34/68/13 54/66/13 53/63/13 47/96/13
f 47/96/6 53/63/6 52/62/6 33/7/6
f 37/65/6 44/93/6 51/44/6 52/62/6
f 44/93/7 40/105/7 50/40/7 51/44/7
f 40/105/4 25/99/4 49/41/4 50/40/4
f 26/125/4 56/12/4 49/15/4 25/99/4
usemtl Portal
f 69/136/25 66/137/25 64/138/25 68/139/25
f 67/140/25 62/141/25 66/137/25 69/136/25
f 61/142/25 67/140/25 69/136/25 65/143/25
f 65/143/25 69/136/25 68/139/25 63/144/25
f 78/145/26 75/146/26 73/147/26 77/148/26
f 76/149/26 71/150/26 75/146/26 78/145/26
f 70/151/26 76/149/26 78/145/26 74/152/26
f 74/152/26 78/145/26 77/148/26 72/153/26
